<svg xmlns="http://www.w3.org/2000/svg" viewBox="0 0 3625.42 686.57" fill="currentColor" role="img" aria-label="rambla"><path d="M1549.97,464.87c51.57,0,111.41-130.76,131.22-183.31,5.55-14.72,23.28-6.63,18.2,7.87-38.22,109.24-98.59,397.13,64.78,397.13,200.66,0,84.74-686.29-10.63-686.29-62.44,0-141.94,155.28-189.56,274.31-5.22,13.06-22.81,13.07-28.05.02C1488.1,155.58,1407.51.28,1345.06.28c-95.37,0-211.3,686.29-10.63,686.29,163.38,0,103-287.89,64.78-397.13-5.07-14.5,12.65-22.59,18.2-7.87,19.81,52.55,80.98,183.31,132.56,183.31Z"></path><path d="M2699.82.28c298.65,0-44.31,535.29-44.31,535.29-5.22,10.95,5.6,20.31,15.55,10.68,0,0,303.92-326.09,317.17-73.34,0,0,5.6,197.62-62.95,197.62h-358.88c-5.22,0-10-3.61-11.58-8.82C2539.59,611.5,2488.94.28,2699.82.28Z"></path><path d="M871.63,32.09c-166.08-91.26-277.58,32.24-272.91,120.09,3.84,72.29,45.18,95.24,166.85,59.33,92.86-27.4,164.14-20.76,175.6-10.89,4.99,4.29,4.76,18.03-16.56,18.03-142.75,0-289.12,110.65-326.92,238.67-37.81,128.02,47.27,231,190.01,230.01,62.56-.43,125.82-20.78,180.32-54.26l-4.32,36.35h75.64c120.04,0,125.65-135.14,133.19-240.71,14.18-198.43-45.22-512.62-300.92-396.61ZM975.09,394.67c-21.2,50.04-87.38,95.61-147.81,101.79-60.43,6.18-92.24-29.37-71.03-79.41,21.2-50.04,87.38-95.61,147.81-101.79,60.43-6.18,92.24,29.37,71.03,79.41Z"></path><path d="M3322.55,32.09c-166.08-91.26-277.58,32.24-272.91,120.09,3.84,72.29,45.18,95.24,166.85,59.33,92.86-27.4,164.14-20.76,175.6-10.89,4.99,4.29,4.76,18.03-16.56,18.03-142.75,0-289.12,110.65-326.92,238.67-37.81,128.02,47.27,231,190.01,230.01,62.56-.43,125.82-20.78,180.32-54.26l-4.32,36.35h75.64c120.04,0,125.65-135.14,133.19-240.71,14.18-198.43-45.22-512.62-300.92-396.61ZM3426.01,394.67c-21.2,50.04-87.38,95.61-147.81,101.79-60.43,6.18-92.24-29.37-71.03-79.41,21.2-50.04,87.38-95.61,147.81-101.79,60.43-6.18,92.24,29.37,71.03,79.41Z"></path><path d="M208.25,500.64c3.75.2,7.53.46,11.37.57,145.64,3.88,291.41-101.72,325.57-235.87C579.34,131.18,488.97,4.16,343.33.28c-52.42-1.4-107.99,20.82-151.97,49.92-6.25,4.14-14.55-1.73-13.93-9.2.42-5.14.87-10.28,1.34-15.43.51-5.5-3.78-10.25-9.3-10.25H8.91s-24.66,307.78,8.05,573.56c5.67,46.05,44.97,80.53,91.37,80.53h109s-5.01-30.23-11.71-70.8c0,0,140.32,146.02,330.37,60.93v-208.07c0-7.57-8.11-12.4-14.72-8.73-46.73,25.9-195.61,100.72-314.03,75.8-15.02-3.16-14.11-18.7,1.01-17.91ZM176.73,325.76c21.2-50.04,87.38-95.61,147.81-101.79,60.43-6.18,92.24,29.37,71.03,79.41-21.2,50.04-87.38,95.61-147.81,101.79-60.43,6.18-92.24-29.37-71.03-79.41Z"></path><path d="M2397.44,267.74c16.09-22.07,28.67-45.82,36.22-70.7C2467.48,85.5,2391.38.28,2263.68.28c-41.5,0-93.47,16.99-142.57,48.83-9.51,6.17-16.58-1.16-15.39-12.43.34-3.21.67-6.36.98-9.24.66-6.17-4.18-11.5-10.39-11.5h-159.24s-24.59,329.4,7.92,590.73c5.69,45.74,44.76,79.97,90.85,79.97,7.82,0,26.94-.07,34.96-.07,258.71,0,372.59-112.26,407.93-228.83,25.63-84.53-9.35-156.86-81.3-190ZM2104.5,257.82c18.34-43.29,75.6-82.72,127.88-88.06,52.28-5.35,79.8,25.41,61.45,68.7-1.48,3.5-3.31,6.96-5.28,10.4-59.1,3.18-117.97,24.97-167.81,58.82-5.49,3.73-13.06,2.27-16.43-3.45-7.09-12.03-7.59-28.07.18-46.4ZM2336.37,488.72c-19.47,45.96-80.26,87.82-135.76,93.49-55.5,5.68-84.71-26.98-65.24-72.93,19.47-45.96,80.26-87.82,135.76-93.49,55.51-5.68,84.71,26.98,65.24,72.93Z"></path></svg>