<svg xmlns="http://www.w3.org/2000/svg" viewBox="0 0 2000 2000" role="img" aria-label="Rambla"><mask id="rambla-r-cut"><path d="M1969.21,947.64c-.45-.29-.91-.57-1.37-.85l-6.15-3.76c-3.32-2.38-6.85-4.53-10.55-6.45l-126.35-77.19c-51.69-31.58-71.39-96.95-45.76-151.83l66.58-142.56c38.59-82.63-26.35-176.17-117.26-168.89l-156.85,12.56c-60.37,4.83-114.74-36.48-126.26-95.94l-29.93-154.47c-17.35-89.54-124.87-127.04-194.14-67.72l-119.5,102.34c-46.01,39.4-114.27,37.94-158.54-3.4l-115-107.37c-66.66-62.24-175.69-29.38-196.86,59.33l-36.53,153.04c-14.06,58.91-70.15,97.85-130.26,90.44l-156.15-19.27c-90.51-11.17-159.41,79.49-124.39,163.71l60.41,145.29c23.25,55.93.77,120.4-52.23,149.73l-146.66,81.18c-.63.35-1.26.7-1.88,1.06C10.45,925.73-2.46,958.32.41,989.65c-2.52,23.29,6.46,47.65,30.38,62.71.45.29.91.57,1.37.85l6.15,3.76c3.32,2.38,6.85,4.53,10.55,6.45l126.34,77.19c51.69,31.58,71.39,96.95,45.76,151.83l-66.58,142.56c-38.59,82.63,26.35,176.17,117.26,168.89l156.84-12.56c60.38-4.83,114.74,36.47,126.26,95.94l29.93,154.47c17.35,89.54,124.87,127.04,194.14,67.72l119.5-102.34c46.01-39.4,114.27-37.94,158.55,3.4l115,107.37c66.66,62.24,175.69,29.38,196.86-59.33l36.53-153.04c14.06-58.91,70.15-97.85,130.26-90.44l156.15,19.27c90.52,11.17,159.41-79.49,124.39-163.71l-60.41-145.29c-23.25-55.93-.77-120.4,52.23-149.73l146.66-81.18c.63-.35,1.26-.7,1.88-1.06,33.13-19.12,46.03-51.71,43.17-83.05,2.52-23.29-6.47-47.66-30.38-62.71Z" fill="#fff"/><path d="M912.24,1203.33c4.84.26,9.73.6,14.68.73,188.09,5.01,376.34-131.37,420.45-304.61,44.12-173.25-72.59-337.29-260.68-342.31-63.26-1.69-130.08,23.26-184.91,57.21-13.01,8.06-29.63-1.8-28.28-17.05.03-.32.06-.64.08-.95.94-10.62-7.33-19.77-17.99-19.77h-195.22c-3.14,0-5.74,2.42-5.97,5.55-3.61,48.88-28.23,411.65,10.18,729.92,7.54,62.48,60.99,109.25,123.92,109.25h128.42c3.7,0,6.53-3.19,5.93-6.84-1.88-11.35-5.96-35.96-11.12-67.18-.92-5.55,5.52-9.33,9.76-5.62,44.84,39.28,204.72,158.33,410.34,68.53,2.21-.96,3.69-3.2,3.69-5.61v-264.73c0-9.77-10.47-16.01-19.02-11.28-60.36,33.44-252.63,130.07-405.55,97.89-19.4-4.08-18.22-24.16,1.3-23.13ZM871.55,977.48c27.38-64.62,112.85-123.48,190.89-131.46,78.05-7.98,119.12,37.93,91.74,102.55-27.38,64.62-112.85,123.48-190.89,131.46-78.05,7.98-119.12-37.93-91.74-102.55Z" fill="#000"/></mask><path d="M0,0H2000V2000H0Z" fill="currentColor" mask="url(#rambla-r-cut)"/></svg>
