<?xml version="1.0"?>
<svg id="Layer_1" data-name="Layer 1" xmlns="http://www.w3.org/2000/svg" viewBox="0 0 67 67">
  <defs>
    
  </defs>
  <path class="cls-2" d="M65.97,31.75s-.03-.02-.05-.03l-.21-.13c-.11-.08-.23-.15-.35-.22l-4.39-2.68c-1.64-1-2.27-3.08-1.46-4.83l2.45-5.25c1.23-2.63-.84-5.6-3.73-5.37l-5.78.46c-1.92.15-3.65-1.16-4.02-3.05l-1.1-5.69c-.55-2.85-3.97-4.04-6.18-2.15l-4.4,3.77c-1.46,1.25-3.64,1.21-5.04-.11l-4.24-3.95c-2.12-1.98-5.59-.93-6.26,1.89l-1.35,5.64c-.45,1.87-2.23,3.11-4.14,2.88l-5.75-.71c-2.88-.36-5.07,2.53-3.96,5.21l2.22,5.35c.74,1.78.02,3.83-1.66,4.76l-5.07,2.81s-.04.02-.06.04c-1.11.64-1.54,1.73-1.45,2.78-.08.78.22,1.6,1.02,2.1.02,0,.03.02.05.03l.21.13c.11.08.23.15.35.22l4.39,2.68c1.64,1,2.27,3.08,1.46,4.83l-2.45,5.25c-1.23,2.63.84,5.6,3.73,5.37l5.78-.46c1.92-.15,3.65,1.16,4.02,3.05l1.1,5.69c.55,2.85,3.97,4.04,6.18,2.15l4.4-3.77c1.46-1.25,3.64-1.21,5.04.11l4.24,3.95c2.12,1.98,5.59.93,6.26-1.89l1.35-5.64c.45-1.87,2.23-3.11,4.14-2.88l5.75.71c2.88.36,5.07-2.53,3.96-5.21l-2.22-5.35c-.74-1.78-.02-3.83,1.66-4.76l5.07-2.81s.04-.02.06-.04c1.11-.64,1.54-1.73,1.45-2.78.08-.78-.22-1.6-1.02-2.1Z"></path>
  <path class="cls-1" d="M30.56,40.31c.16,0,.33.02.49.02,6.3.17,12.61-4.4,14.09-10.2,1.48-5.8-2.43-11.3-8.73-11.47-2.27-.06-4.67.9-6.57,2.16-.27.18-.63-.07-.6-.4.02-.22.04-.44.06-.67.02-.24-.16-.44-.4-.44h-6.95s-1.07,13.32.35,24.81c.25,1.99,1.95,3.48,3.95,3.48h4.72s-.22-1.31-.51-3.06c0,0,6.07,6.32,14.29,2.64v-9c0-.33-.35-.54-.64-.38-2.02,1.12-8.46,4.36-13.59,3.28-.65-.14-.61-.81.04-.77ZM29.2,32.75c.92-2.16,3.78-4.14,6.39-4.4,2.61-.27,3.99,1.27,3.07,3.44-.92,2.16-3.78,4.14-6.39,4.4-2.61.27-3.99-1.27-3.07-3.44Z"></path>
</svg>