<?xml version="1.0"?>
<svg id="Layer_1" data-name="Layer 1" xmlns="http://www.w3.org/2000/svg" viewBox="0 0 2000 845.22">
  <path d="M982.01,462.2l-115.32-.15-89.05-129.02-98.73.07.07,128.97-106.79.13-.02-462.51,214.93.31c40.44.06,77.91,10.66,112.08,29.9,29.01,17.37,49.94,41.53,62.79,72.76,14.7,40.22,15.26,83.68,1.49,124.37-15.08,39.58-44.15,68.64-84.89,86.46l103.43,148.7ZM857.12,129.06c-7.36-15.84-20.54-26.1-36.08-33.54-14-4.48-28.95-8.69-44.23-8.71l-97.89-.12.06,160.78,91.5.08c17.62.02,34.24-2.8,50.51-8.72,42.91-18.2,54.29-70.69,36.13-109.77Z"></path>
  <path d="M1838.7,362.95l-214.98-.2-41.67,99.51-109.17-.3L1679.04-.38l105.83.14,206.74,462.15-111.9.4-41-99.36ZM1804.67,281.39l-73.5-176.7-73.85,176.97,147.35-.27Z"></path>
  <path d="M370.53,362.93l-214.89-.19-41.65,99.43-109.26-.1L210.92-.43l105.88.24,206.56,461.8-111.78.68-41.05-99.36ZM336.61,281.44l-73.36-176.82-74.11,177.01,147.47-.19Z"></path>
  <path d="M1262.91,377.61c54.8,6.89,104.49-12.06,139.24-53.47l68.43,63.25c-65.38,80.63-182.2,99.06-276.68,69.7-99.89-31.04-164.27-121.03-165.03-224.47s58.18-188.39,153.25-223.71c59.5-22.1,125.65-22.35,186.91-3.93,40.59,13.56,75.24,36.33,101.54,68.93l-68.43,63.24c-34.2-40.3-84.49-60.03-137.37-52.84-56.93,5.46-104.09,43.13-120.4,98.18-9.53,32.16-9.28,65.58.29,97.54,16.21,54.12,61.52,90.44,118.24,97.58Z"></path>
  <path d="M1559.29,844.9l-10.27.36-52.95-65.7-.38,66.05-12.54-.21.07-88.1c3.33-1.02,10.3-.26,12.29,2.19l50.68,62.34.65-64.83,12.43.17v87.73Z"></path>
  <path d="M386.7,690.86c-6.06,3.12-11.45-.38-15.09-4.9l-48.1-59.74-.39,63.91c-2.67.87-8.09,1.49-12.47,1.67l-.05-88.14c8.08-1.91,11.82,1.54,16.14,6.91l47.07,58.6.36-65.69,12.56.16-.04,87.22Z"></path>
  <path d="M2000,691.1c-6.98,2.5-11.23-.41-15.18-5.3l-48.09-59.61-.39,65.55-12.5-.06v-87.98c7.15-1.58,11.18.86,15.07,5.69l48.13,59.79.37-65.66,12.53.04.05,87.54Z"></path>
  <path d="M608.21,844.45c-3.39,1.42-10.11.84-12.02-1.52l-51.12-63.3-.45,64.41-12.47,1.26-.03-88.12c7.87-2.07,11.8,1.58,16.21,7.05l47.19,58.57.1-65.79,12.66.15-.06,87.29Z"></path>
  <path d="M1745.13,843.77l-17.93-25.01-28.37-.1.1,26.33-13.11-.34.2-87.95,43.44.82c14.6.28,26.07,12.09,27.99,24.05,2.52,15.66-4.24,28.79-19.54,33.7l20.53,29.04c-1.59,1.17-11.58,1.87-13.31-.54ZM1727.61,807.1c12.01-.38,18.6-11.04,17.91-20.81-.73-10.42-8.42-18.02-19.86-18.26l-26.88-.55v40.54s28.82-.92,28.82-.92Z"></path>
  <path d="M1494.72,691.58l-41.66.48-.1-88.46h40.52c25.38,0,44.57,19.17,44.97,42.96.41,23.98-16.85,44.73-43.74,45.03ZM1498.24,680.16c17.8-.57,27.27-17.01,27.56-31.49.29-14.62-7.64-28.89-23.8-32.54l-36.6-1.68.13,66.76,32.71-1.05Z"></path>
  <path d="M1205.64,844.97l-41.55.5-.07-88.83,40.75.36c25.8.23,44.1,19.31,44.56,43.4.45,23.55-17.21,44.25-43.69,44.57ZM1203.73,834.26c20.57-.23,33.58-16.28,33.12-33.9-.47-18.29-14.34-32.31-34.15-32.51l-26.16-.27.1,66.97,27.09-.3Z"></path>
  <path d="M752.57,691.54l-42.21.48-.13-88.38,40.99.02c25.3.01,43.73,19.06,44.24,43.04.5,23.25-16.8,44.54-42.9,44.84ZM749.4,681c18.57-.19,32.12-13.62,33.27-30.4,1.18-17.19-8.96-34.7-27.92-35.39l-32.42-1.18-.02,67.27,27.1-.28Z"></path>
  <path d="M1825.89,846.37c-28.41-.6-47.76-21.72-46.38-47.88,1.32-24.92,22.13-43.48,48.61-42.6,25.34.85,45.16,20.09,45.43,44.56.28,25.46-19.66,46.51-47.66,45.92ZM1819.8,834.64c19.84,3.29,37.19-8.83,40.35-26.05,3.34-18.24-5.85-36.12-24.79-40.44-20.2-4.61-39.4,6.56-42.99,26.58-3.09,17.26,6.83,36.5,27.43,39.92Z"></path>
  <path d="M1851.23,692.94c-28.82.95-48.96-20.35-48.42-46.37.54-26.22,22.03-45.39,49.53-44.06,25.29,1.22,44.06,20.06,44.51,44.11.47,25.01-18.13,45.42-45.62,46.32ZM1859.36,680.6c16.29-3.86,24.43-17.81,24.79-31.97.37-14.75-7.62-28.38-22.63-33.13-14.51-4.59-30.54-.46-39.46,11.2-8.54,11.18-9.14,27.52-1.82,39.32,7.84,12.65,22.76,18.46,39.12,14.58Z"></path>
  <path d="M864.32,846.4c-28.17-.4-47.78-21.73-46.58-47.31,1.2-25.53,22.41-44.2,48.77-43.21,25.48.96,44.79,20.06,45.26,44.65.48,25.3-19.61,46.27-47.45,45.88ZM870.68,834.7c18.24-2.75,29.01-18.41,28.54-34.29-.48-16.13-10.71-29.64-27.55-32.68-22-3.97-41.23,11.23-41.78,32.58-.54,20.96,17.26,37.93,40.79,34.39Z"></path>
  <path d="M455.2,846.3c-27.46-1.64-45.64-22.67-44.33-47.89,1.3-24.94,22.46-43.46,48.7-42.53,26.17.92,46.18,21.24,45.29,46.65-.89,25.47-21.61,45.45-49.67,43.77ZM453.15,834.93c20.34,2.25,36.19-10.79,38.7-28.28,2.5-17.42-6.9-34.19-25.07-38.5-19.95-4.73-39.41,6.68-43.04,26.32-3.37,18.22,7.98,38.09,29.42,40.46Z"></path>
  <path d="M1015.02,690.38l-17.38-25.1-28.64-.08-.04,26.68-11.98-.32.04-88.22,44.11,1.05c14.98.36,25.34,12.97,26.89,25.3,1.89,14.96-4.94,26.78-19.43,32.77l20.34,28.6c-3.48.99-12.17,1.29-13.91-.67ZM998.92,653.51c11.7-.39,16.67-10.95,16.64-19.6-.03-7.82-4.6-17.9-14.55-18.4l-32.03-1.61-.03,40.59,29.96-.99Z"></path>
  <path d="M783.59,843.82l-18.09-25.12-28.5-.07.13,26.21-12.08.33-.08-88.5,42.92.89c14.71.3,25.93,11.93,27.82,24.07,2.38,15.35-4.13,28.8-19.5,33.7l20.54,29.01c-1.37,1.15-11.48,1.83-13.17-.53ZM783.23,785.38c.14-8.27-6.25-16.1-13.98-16.48l-32.22-1.57v40.79s30.47-1.36,30.47-1.36c10.57-.47,17.47-9.76,15.73-21.39Z"></path>
  <path d="M274.93,652.23l-44.33.04v28.88s51.08.1,51.08.1l-.09,10.62-63.68.04.05-88.61,61.09.11c1.54,1.92,1.56,8.5.12,10.56l-48.48.12-.12,27.52h44.43s-.07,10.61-.07,10.61Z"></path>
  <path d="M1114.03,652.15l-45.01.17.03,28.9,51.58-.06-.09,10.75h-64.02s0-88.54,0-88.54l62.22-.03.03,10.67-49.95.22.25,27.34,42.18.2c1.87,0,2.99,5.92,2.78,10.39Z"></path>
  <path d="M173.59,677.3l.21-29.91,12-.44-.2,35.42c-18.26,12.44-41.35,14.95-60.3,2.91-23.26-14.78-27.24-48.45-7.68-68.62,18.58-19.17,49.36-18.7,68.75-1.35l-8.13,7.82c-15.68-13.4-38.57-12.91-52.23,2.13-13.08,14.41-10.28,38.61,5.17,49.73,12.52,9.01,27.28,8.39,42.41,2.32Z"></path>
  <polygon points="1650.8 805.8 1606.55 805.74 1606.78 834.44 1658.11 834.5 1658.07 845.24 1594.13 845.28 1594.05 756.7 1656.14 756.69 1656.2 767.62 1606.61 767.58 1606.61 795.07 1650.29 795.13 1650.8 805.8"></polygon>
  <polygon points="879.44 652.21 834.84 652.26 834.85 681.18 886.36 681.18 886.33 691.91 822.32 691.9 822.32 603.35 884.4 603.34 884.38 614.11 834.79 614.06 834.77 641.59 878.14 641.64 879.44 652.21"></polygon>
  <path d="M1303.23,669.67l-47.67-.2-9.58,22.32-12.82-.22,39.55-87.8,13.29.61,39.4,87.24-13.03.53-9.14-22.48ZM1298.36,659.43l-19.26-43.06-19.53,43.51,38.78-.45Z"></path>
  <path d="M1439.7,823.24l-47.36-.43-9.95,22.22-12.97.38,39.97-88.18c4.4-.34,10.1.03,13.35,1.04l39.3,87.11c-4.24.19-10.04-.13-13.37-.98l-8.98-21.15ZM1435.01,813.19l-19.31-43.54-19.47,43.42,38.78.13Z"></path>
  <path d="M1120.15,823l-47.4.05-8.84,20.97c-2.29,1.74-9.06,1.9-13.46,1.11l39.43-87.12c3.67-.94,9.34-1.14,13.37-.54l39.52,87.63-12.8-.09-9.81-22.02ZM1116.04,812.98l-19.18-42.42-19.46,42.59,38.64-.17Z"></path>
  <path d="M70.01,669.56l-47.64-.03-9.55,22.29-12.81-.23,38.82-85.65c1.46-3.21,10.88-3.12,13.77-1.36l39.87,87.05-13.14.22-9.31-22.28ZM65.25,659.62l-19.17-43.24-19.34,43.16,38.51.08Z"></path>
  <path d="M1620.9,669.65l-47.38-.21-9.48,21.92-13.14.43,39.23-86.87c3.62-1.91,10.39-1.91,13.75.02l39.45,86.76-13.22-.21-9.21-21.84ZM1616.18,659.71l-19.18-43.66-19.44,43.5,38.62.16Z"></path>
  <path d="M624.41,669.66l-47.45-.18-9.82,22.36-12.62-.37,39-85.87c1.32-2.9,10.56-2.73,13.76-1.07l39.4,86.98-12.89.29-9.38-22.15ZM619.6,659.31l-18.91-42.79-19.58,43.19,38.48-.4Z"></path>
  <path d="M1407.25,603.9l11.83-.31-.13,54.43c-.05,21.63-16.24,35.27-36.92,35.27-21.45,0-37.4-14-37.59-36.1l-.46-53.66,12.62.04.54,56.36c.13,13.78,12.37,22.11,24.72,22.09,14.21-.03,25.05-9.43,25.12-23.99l.26-54.12Z"></path>
  <path d="M1338.93,757.3l11.83-.25-.53,56.7c-.19,20.19-16.74,32.19-35.58,32.85-21.16.74-38.33-12.77-38.49-34.94l-.38-52.73c.7-2.94,11.64-2.74,12.28.23l.62,52.55c.18,15.35,11.59,24.09,25.94,23.62,12.78-.42,23.67-8.97,23.8-22.68l.52-55.34Z"></path>
  <path d="M1212.06,673.38c2.58-2.08,8.5,2.22,10.17,6.4-14.61,14.39-36.82,17.18-55.54,8.15-19.88-9.59-28.14-31.93-23.04-51.75,5.61-21.79,25.52-35.21,48.64-33.6,11.94.83,21.4,4.49,30.18,13.57l-8.78,7.15c-14.78-13.21-35.47-12.48-49.01-.07-12.84,11.77-13.85,33.75-2.09,46.62,12.53,13.71,32.75,17,49.47,3.54Z"></path>
  <path d="M384.26,826.51c2.55-.64,7.98,3.86,9.23,6.69-17.72,16.21-44.21,18.04-63.07,3.47-15.53-12-20.58-32.49-14.8-50.01,5.98-18.15,23.22-30.6,43.67-30.73,13.32-.08,25.06,4.13,34.46,13.36l-6.4,6.86c-1.3,1.4-6-2.24-7.72-3.34-15.39-9.79-35.87-6.82-46.71,7.19-10.59,13.68-9.44,33.52,3.14,45.81,12.4,12.11,33.53,12.56,48.21.71Z"></path>
  <path d="M433.18,627.45c-11.26,14.84-7.48,35.49,4.69,45.94,13.67,11.74,34.31,11.59,48.01-1.42l8.71,6.65c-8.72,9.8-19.4,13.69-31.92,14.31-26.95,1.34-48.11-18.77-48.68-44.33s20.99-47.38,48.75-46.06c12.79.61,24.23,4.95,31.79,14.46l-8.71,6.15c-15.35-13.84-39.63-12.85-52.63,4.28Z"></path>
  <path d="M1726.56,673.34c2.18-1.74,7.77,2.99,9.68,6.67-9.03,8.43-20.47,13-33.7,13-26.89-.01-47.15-21.06-46.38-46.39.8-26.5,23.17-46.18,50.66-44.04,12.21.95,22.75,5.24,29.51,14.48l-8.4,6.19c-14.5-13.2-35.32-12.47-48.99-.12-12.82,11.58-13.92,34.26-2.18,47.02,12.54,13.63,33.31,16.39,49.81,3.2Z"></path>
  <path d="M256.9,757.94l-34.42,56.93-.23,30.49-11.69-.93-.02-29.1-34.89-57.93c3.98-.8,10.88-.58,13.68,1.14l27.62,45.36,28.52-46.99,11.45,1.04Z"></path>
  <polygon points="998.51 834.4 998.77 845.22 939.03 845.3 939.05 757.14 951.72 757.07 951.69 834.5 998.51 834.4"></polygon>
  <polygon points="672.67 844.6 660.53 845.18 660.61 767.66 630.74 767.56 630.59 756.7 702.87 756.67 703.07 767.58 672.66 767.71 672.67 844.6"></polygon>
  <path d="M1775.39,689.13c-2.09,2.42-8,3.12-12.47,2.56l-.07-87.2,12.38-.77.16,85.4Z"></path>
  <polygon points="532.65 691.67 520.68 691.64 520.58 604.62 532.63 603.48 532.65 691.67"></polygon>
  <path d="M1853.91,594.26c-2.45,1.92-8.54,1.93-12,1.07l15.16-14.51c2.19-2.1,10.89-1.18,14.48-.34l-17.64,13.78Z"></path>
</svg>